#N canvas 890 358 450 594 10;
#X obj 150 234 readsf~ 2;
#X obj 72 245 metro 40;
#X obj 72 143 t b a, f 6;
#X obj 150 323 dac~ 1 2;
#X obj 72 168 t b b, f 6;
#X obj 72 210 tgl 15 0 empty empty empty 17 7 0 10 -262144 -1 -1 1
1;
#X msg 72 189 1;
#X obj 72 318 f;
#X msg 201 266 0;
#X obj 201 288 t f f;
#X obj 98 318 + 40;
#X msg 150 209 open \$1 \, 1;
#X obj 150 188 symbol;
#X obj 72 119 route audio;
#X obj 72 89 netreceive -u 9999;
#X msg 72 383 send tc \$1;
#X obj 72 417 spigot;
#X obj 172 356 loadbang;
#X obj 172 378 metro 1000;
#X obj 72 449 netsend -u;
#X obj 72 474 == 0;
#X obj 72 496 change -1;
#X msg 172 400 connect localhost 8888;
#X obj 267 111 loadbang;
#X obj 267 133 del 1000;
#X msg 267 155 \; pd dsp 1;
#X msg 104 284 0;
#X connect 0 0 3 0;
#X connect 0 1 3 1;
#X connect 0 2 8 0;
#X connect 1 0 7 0;
#X connect 2 0 4 0;
#X connect 2 1 12 0;
#X connect 4 0 6 0;
#X connect 4 1 26 0;
#X connect 5 0 1 0;
#X connect 6 0 5 0;
#X connect 7 0 10 0;
#X connect 7 0 15 0;
#X connect 8 0 9 0;
#X connect 9 0 7 1;
#X connect 9 1 5 0;
#X connect 10 0 7 1;
#X connect 11 0 0 0;
#X connect 12 0 11 0;
#X connect 13 0 2 0;
#X connect 14 0 13 0;
#X connect 15 0 16 0;
#X connect 16 0 19 0;
#X connect 17 0 18 0;
#X connect 18 0 22 0;
#X connect 19 0 16 1;
#X connect 19 0 20 0;
#X connect 20 0 21 0;
#X connect 21 0 18 0;
#X connect 22 0 19 0;
#X connect 23 0 24 0;
#X connect 24 0 25 0;
#X connect 26 0 7 1;
