#N canvas 665 164 994 600 10;
#X obj 393 332 readsf~ 2;
#X obj 48 250 metro 40;
#X obj 48 148 t b a, f 6;
#X obj 393 471 dac~ 1 2;
#X obj 48 173 t b b, f 6;
#X obj 48 215 tgl 15 0 empty empty empty 17 7 0 10 -262144 -1 -1 0
1;
#X msg 48 194 1;
#X obj 48 328 f;
#X msg 444 364 0;
#X obj 74 328 + 40;
#X msg 393 307 open \$1 \, 1;
#X obj 393 286 symbol;
#X obj 48 94 netreceive -u 9999;
#X msg 48 388 send tc \$1;
#X obj 48 422 spigot;
#X obj 148 361 loadbang;
#X obj 148 383 metro 1000;
#X obj 48 454 netsend -u;
#X obj 48 479 == 0;
#X obj 48 501 change -1;
#X msg 148 405 connect localhost 8888;
#X obj 847 140 loadbang;
#X obj 847 162 del 1000;
#X msg 847 184 \; pd dsp 1;
#X msg 80 289 0;
#X obj 726 299 readsf~ 2;
#X obj 726 338 dac~ 1 2;
#X obj 726 203 symbol;
#X obj 48 124 route audio audio2;
#X obj 444 386 t f f f;
#X obj 123 165 print AUDIO;
#X obj 610 146 t b a;
#X msg 726 224 open \$1;
#X obj 587 172 t b b;
#X msg 614 222 1;
#X obj 393 435 *~;
#X obj 429 435 *~;
#X obj 511 406 dbtorms~;
#X obj 553 121 route bang;
#X obj 511 382 line3;
#X obj 580 321 loadbang;
#X msg 511 355 88 1000;
#X msg 580 343 100 1000;
#X obj 614 195 del 1000;
#X connect 0 0 35 0;
#X connect 0 1 36 0;
#X connect 0 2 8 0;
#X connect 1 0 7 0;
#X connect 2 0 4 0;
#X connect 2 1 11 0;
#X connect 4 0 6 0;
#X connect 4 1 24 0;
#X connect 5 0 1 0;
#X connect 6 0 5 0;
#X connect 7 0 9 0;
#X connect 7 0 13 0;
#X connect 8 0 29 0;
#X connect 9 0 7 1;
#X connect 10 0 0 0;
#X connect 11 0 10 0;
#X connect 12 0 28 0;
#X connect 13 0 14 0;
#X connect 14 0 17 0;
#X connect 15 0 16 0;
#X connect 16 0 20 0;
#X connect 17 0 14 1;
#X connect 17 0 18 0;
#X connect 18 0 19 0;
#X connect 19 0 16 0;
#X connect 20 0 17 0;
#X connect 21 0 22 0;
#X connect 22 0 23 0;
#X connect 24 0 7 1;
#X connect 25 0 26 0;
#X connect 25 1 26 1;
#X connect 25 2 42 0;
#X connect 27 0 32 0;
#X connect 28 0 2 0;
#X connect 28 0 30 0;
#X connect 28 1 30 0;
#X connect 28 1 38 0;
#X connect 29 0 7 1;
#X connect 29 1 5 0;
#X connect 31 0 33 0;
#X connect 31 1 27 0;
#X connect 32 0 25 0;
#X connect 33 0 41 0;
#X connect 33 1 43 0;
#X connect 34 0 25 0;
#X connect 35 0 3 0;
#X connect 36 0 3 1;
#X connect 37 0 36 1;
#X connect 37 0 35 1;
#X connect 38 1 31 0;
#X connect 39 0 37 0;
#X connect 40 0 42 0;
#X connect 41 0 39 0;
#X connect 42 0 39 0;
#X connect 43 0 34 0;
