#N canvas 121 251 1024 600 10;
#X obj 393 332 readsf~ 2;
#X obj 48 250 metro 40;
#X obj 48 148 t b a, f 6;
#X obj 393 471 dac~ 1 2;
#X obj 48 173 t b b, f 6;
#X obj 48 215 tgl 15 0 empty empty empty 17 7 0 10 -262144 -1 -1 0
1;
#X msg 48 194 1;
#X obj 90 327 f;
#X msg 444 364 0;
#X obj 116 327 + 40;
#X msg 393 307 open \$1 \, 1;
#X obj 393 286 symbol;
#X obj 48 94 netreceive -u 9999;
#X msg 48 388 send tc \$1;
#X obj 48 422 spigot;
#X obj 148 361 loadbang;
#X obj 148 383 metro 1000;
#X obj 48 454 netsend -u;
#X obj 48 479 == 0;
#X obj 48 501 change -1;
#X msg 148 405 connect localhost 8888;
#X obj 846 88 loadbang;
#X msg 847 184 \; pd dsp 1;
#X msg 80 289 0;
#X obj 726 299 readsf~ 2;
#X obj 726 203 symbol;
#X obj 48 124 route audio audio2;
#X obj 123 165 print AUDIO;
#X msg 726 224 open \$1;
#X obj 587 172 t b b;
#X msg 614 222 1;
#X obj 393 435 *~;
#X obj 429 435 *~;
#X obj 511 406 dbtorms~;
#X obj 553 121 route bang;
#X obj 511 382 line3;
#X obj 580 321 loadbang;
#X msg 511 355 88 1000;
#X obj 614 195 del 1000;
#X obj 725 467 dac~ 1 2;
#X obj 725 431 *~;
#X obj 761 431 *~;
#X obj 841 385 dbtorms~;
#X obj 841 361 line3;
#X obj 910 300 loadbang;
#X obj 393 251 t a b;
#X msg 841 334 0 1000;
#X obj 610 146 t b a b b;
#X msg 684 225 0;
#X msg 580 343 100 1000;
#X obj 48 360 realtime;
#X obj 210 327 t b;
#X obj 846 110 del 5000;
#X obj 853 135 del 1000;
#X msg 311 443 1e+07;
#X msg 796 305 106;
#X msg 910 322 106;
#X obj 444 387 t f f b;
#X obj 311 412 del 10000;
#X connect 0 0 31 0;
#X connect 0 1 32 0;
#X connect 0 2 8 0;
#X connect 1 0 50 1;
#X connect 2 0 4 0;
#X connect 2 1 45 0;
#X connect 4 0 6 0;
#X connect 4 1 23 0;
#X connect 4 1 50 0;
#X connect 5 0 1 0;
#X connect 6 0 5 0;
#X connect 7 0 9 0;
#X connect 8 0 57 0;
#X connect 9 0 7 1;
#X connect 10 0 0 0;
#X connect 11 0 10 0;
#X connect 12 0 26 0;
#X connect 13 0 14 0;
#X connect 14 0 17 0;
#X connect 15 0 16 0;
#X connect 16 0 20 0;
#X connect 17 0 14 1;
#X connect 17 0 18 0;
#X connect 18 0 19 0;
#X connect 19 0 16 0;
#X connect 20 0 17 0;
#X connect 21 0 52 0;
#X connect 23 0 7 1;
#X connect 24 0 40 0;
#X connect 24 1 41 0;
#X connect 24 2 49 0;
#X connect 25 0 28 0;
#X connect 26 0 2 0;
#X connect 26 0 27 0;
#X connect 26 1 27 0;
#X connect 26 1 34 0;
#X connect 28 0 24 0;
#X connect 29 0 37 0;
#X connect 29 1 38 0;
#X connect 30 0 24 0;
#X connect 31 0 3 0;
#X connect 32 0 3 1;
#X connect 33 0 32 1;
#X connect 33 0 31 1;
#X connect 34 1 47 0;
#X connect 35 0 33 0;
#X connect 36 0 49 0;
#X connect 37 0 35 0;
#X connect 38 0 30 0;
#X connect 40 0 39 0;
#X connect 41 0 39 1;
#X connect 42 0 41 1;
#X connect 42 0 40 1;
#X connect 43 0 42 0;
#X connect 44 0 56 0;
#X connect 45 0 11 0;
#X connect 45 1 46 0;
#X connect 46 0 43 0;
#X connect 47 0 29 0;
#X connect 47 1 25 0;
#X connect 47 2 55 0;
#X connect 47 3 48 0;
#X connect 48 0 24 0;
#X connect 49 0 35 0;
#X connect 50 0 13 0;
#X connect 51 0 50 0;
#X connect 52 0 22 0;
#X connect 52 0 53 0;
#X connect 53 0 22 0;
#X connect 54 0 13 0;
#X connect 55 0 43 0;
#X connect 56 0 43 0;
#X connect 57 0 7 1;
#X connect 57 0 51 0;
#X connect 57 1 5 0;
#X connect 57 2 58 0;
#X connect 58 0 54 0;
