#N canvas 349 285 909 732 10;
#X obj 78 78 netreceive -u 8888;
#X obj 64 323 pix_film;
#X obj 64 450 pix_texture;
#X obj 22 171 gemhead;
#X obj 69 231 symbol;
#X msg 69 255 open \$1 \, auto 0;
#X obj 314 479 color;
#X obj 78 160 t b a;
#X obj 86 346 unpack 0 0 0 0;
#X floatatom 202 202 5 0 0 0 - - -, f 5;
#X floatatom 72 373 5 0 0 0 - - -, f 5;
#X obj 202 221 t f f;
#X obj 229 338 tgl 15 0 empty empty empty 17 7 0 10 -262144 -1 -1 1
1;
#X obj 202 152 /;
#X msg 669 396 destroy;
#X obj 78 108 route video tc;
#X obj 641 287 loadbang;
#X msg 730 333 destroy \, reset \, create \, 1 \,;
#X obj 726 193 key;
#X obj 726 215 sel 178;
#X obj 726 237 tgl 15 0 empty empty empty 17 7 0 10 -262144 -1 -1 0
1;
#X obj 726 257 sel 0 1;
#X obj 817 186 gemkeyboard;
#X obj 817 206 sel 49;
#X obj 252 142 print VIDEO;
#X obj 641 478 gemwin 25;
#X obj 78 132 route bang;
#X obj 202 116 t b f;
#X obj 152 446 /;
#X obj 103 205 bng 15 250 50 0 empty empty empty 17 7 0 10 -262144
-1 -1;
#X floatatom 205 383 5 0 0 0 - - -, f 5;
#X obj 152 467 * 4;
#X msg 387 332 1;
#X obj 125 280 line;
#X msg 182 272 \$1 100;
#X floatatom 193 361 5 0 0 0 - - -, f 5;
#X obj 202 91 /;
#X msg 202 68 1000 \$1;
#X msg 641 429 destroy \, reset \, border 0 \, dimen 1024 768 \, offset
1280 0 \, create \, 1 \,;
#X obj 64 531 rotateXYZ 0 0 90;
#X obj 64 563 scaleXYZ 1.45 1.45 1;
#X obj 64 640 rectangle 5.333 4;
#X obj 210 519 nbx 5 14 -1e+37 1e+37 0 1 empty empty empty 0 -8 0 10
-262144 -1 -1 1.4 256;
#X obj 64 611 translateXYZ;
#X obj 87 584 nbx 5 14 -1e+37 1e+37 0 1 empty empty empty 0 -8 0 10
-262144 -1 -1 -0.29 256;
#X obj 151 586 nbx 5 14 -1e+37 1e+37 0 1 empty empty empty 0 -8 0 10
-262144 -1 -1 0.14 256;
#X obj 93 471 nbx 5 14 -1e+37 1e+37 0 1 empty empty empty 0 -8 0 10
-262144 -1 -1 3.76 256;
#X obj 112 496 nbx 5 14 -1e+37 1e+37 0 1 empty empty empty 0 -8 0 10
-262144 -1 -1 -3.68 256;
#X obj 168 494 nbx 5 14 -1e+37 1e+37 0 1 empty empty empty 0 -8 0 10
-262144 -1 -1 93.59 256;
#X obj 271 519 nbx 5 14 -1e+37 1e+37 0 1 empty empty empty 0 -8 0 10
-262144 -1 -1 1.29 256;
#X obj 314 455 translateXYZ;
#X obj 383 433 nbx 5 14 -1e+37 1e+37 0 1 empty empty empty 0 -8 0 10
-262144 -1 -1 0.54 256;
#X obj 202 174 + 1;
#X obj 123 301 f;
#X obj 290 203 t f f;
#X obj 291 228 -, f 4;
#X obj 291 251 < 0;
#X obj 291 276 sel 1;
#X msg 278 297 0;
#X obj 264 179 t f f;
#X obj 314 674 pix_texture;
#X obj 314 650 pix_film;
#X obj 314 697 rectangle 5.33 4;
#X floatatom 380 651 5 0 0 0 - - -, f 5;
#X floatatom 414 676 5 0 0 0 - - -, f 5;
#X obj 314 337 alpha;
#X msg 341 384 1 1 1 \$1;
#X obj 299 415 nbx 5 14 -1e+37 1e+37 0 1 empty empty empty 0 -8 0 10
-262144 -1 -1 1.55 256;
#X obj 369 412 nbx 5 14 -1e+37 1e+37 0 1 empty empty empty 0 -8 0 10
-262144 -1 -1 -0.91 256;
#X obj 389 298 loadbang;
#X obj 478 476 color;
#X msg 554 328 1;
#X obj 481 451 translateXYZ;
#X obj 550 429 nbx 5 14 -1e+37 1e+37 0 1 empty empty empty 0 -8 0 10
-262144 -1 -1 0.51 256;
#X obj 481 299 gemhead -2;
#X obj 481 333 alpha;
#X obj 481 502 rotateXYZ 0 0 90;
#X obj 466 411 nbx 5 14 -1e+37 1e+37 0 1 empty empty empty 0 -8 0 10
-262144 -1 -1 1.56 256;
#X obj 536 408 nbx 5 14 -1e+37 1e+37 0 1 empty empty empty 0 -8 0 10
-262144 -1 -1 -0.98 256;
#X obj 556 294 loadbang;
#X obj 315 303 gemhead -3;
#X msg 508 380 0 0 0 \$1;
#X obj 481 593 rectangle 10 10;
#X obj 338 592 loadbang;
#X msg 332 613 open affichage.mov \, auto 1;
#X obj 314 522 scaleXYZ 1.45 1.45 1;
#X obj 361 486 nbx 5 14 -1e+37 1e+37 0 1 empty empty empty 0 -8 0 10
-262144 -1 -1 0.89 256;
#X obj 315 564 rotateXYZ 0 0 90;
#X obj 346 542 nbx 5 14 -1e+37 1e+37 0 1 empty empty empty 0 -8 0 10
-262144 -1 -1 90 256;
#X obj 260 374 line;
#X msg 260 352 \$1 1000;
#X obj 64 409 spigot;
#X obj 110 388 <;
#X obj 229 317 >= 10000;
#X connect 0 0 15 0;
#X connect 1 0 91 0;
#X connect 1 1 8 0;
#X connect 2 0 39 0;
#X connect 3 0 1 0;
#X connect 4 0 5 0;
#X connect 5 0 1 0;
#X connect 6 0 85 0;
#X connect 7 0 53 0;
#X connect 7 1 4 0;
#X connect 8 0 10 0;
#X connect 8 0 92 1;
#X connect 8 1 30 0;
#X connect 8 1 28 0;
#X connect 8 2 28 1;
#X connect 8 3 35 0;
#X connect 8 3 37 0;
#X connect 9 0 11 0;
#X connect 11 0 34 0;
#X connect 11 1 92 0;
#X connect 11 1 93 0;
#X connect 13 0 52 0;
#X connect 14 0 25 0;
#X connect 15 0 24 0;
#X connect 15 0 26 0;
#X connect 15 1 59 0;
#X connect 16 0 38 0;
#X connect 17 0 25 0;
#X connect 18 0 19 0;
#X connect 19 0 20 0;
#X connect 20 0 21 0;
#X connect 21 0 38 0;
#X connect 21 1 17 0;
#X connect 22 0 23 0;
#X connect 23 0 20 0;
#X connect 26 1 7 0;
#X connect 27 0 13 0;
#X connect 27 1 13 1;
#X connect 28 0 31 0;
#X connect 29 0 4 0;
#X connect 31 0 41 1;
#X connect 32 0 66 0;
#X connect 33 0 53 0;
#X connect 34 0 33 0;
#X connect 36 0 27 0;
#X connect 37 0 36 0;
#X connect 38 0 25 0;
#X connect 39 0 40 0;
#X connect 40 0 43 0;
#X connect 42 0 40 1;
#X connect 43 0 41 0;
#X connect 44 0 43 1;
#X connect 45 0 43 2;
#X connect 46 0 39 1;
#X connect 47 0 39 2;
#X connect 48 0 39 3;
#X connect 49 0 40 2;
#X connect 50 0 6 0;
#X connect 51 0 50 3;
#X connect 52 0 9 0;
#X connect 53 0 1 1;
#X connect 54 0 55 1;
#X connect 54 1 55 0;
#X connect 55 0 56 0;
#X connect 56 0 57 0;
#X connect 57 0 58 0;
#X connect 58 0 33 0;
#X connect 59 0 13 0;
#X connect 59 1 54 0;
#X connect 60 0 62 0;
#X connect 61 0 60 0;
#X connect 61 2 64 0;
#X connect 61 2 63 0;
#X connect 63 0 61 1;
#X connect 65 0 50 0;
#X connect 66 0 6 1;
#X connect 67 0 50 1;
#X connect 68 0 50 2;
#X connect 69 0 32 0;
#X connect 70 0 76 0;
#X connect 71 0 81 0;
#X connect 72 0 70 0;
#X connect 73 0 72 3;
#X connect 74 0 75 0;
#X connect 75 0 72 0;
#X connect 76 0 82 0;
#X connect 77 0 72 1;
#X connect 78 0 72 2;
#X connect 79 0 71 0;
#X connect 80 0 65 0;
#X connect 81 0 70 1;
#X connect 83 0 84 0;
#X connect 84 0 61 0;
#X connect 85 0 87 0;
#X connect 86 0 85 1;
#X connect 86 0 85 2;
#X connect 87 0 61 0;
#X connect 88 0 87 3;
#X connect 89 0 66 0;
#X connect 89 0 81 0;
#X connect 90 0 89 0;
#X connect 91 0 2 0;
#X connect 92 0 91 1;
#X connect 93 0 12 0;
#X connect 93 0 90 0;
