#N canvas 924 322 861 600 10;
#X obj 78 78 netreceive -u 8888;
#X obj 64 253 pix_film;
#X obj 64 340 pix_texture;
#X obj 22 171 gemhead;
#X obj 78 190 symbol;
#X msg 78 214 open \$1 \, auto 0;
#X obj 338 297 gemhead 10000;
#X obj 338 319 alpha;
#X obj 338 411 color;
#X msg 365 366 0 0 0 \$1;
#X obj 338 433 rectangle 4 4;
#X obj 64 362 rectangle 4 4;
#X obj 78 161 t b a;
#X obj 86 276 unpack 0 0 0 0;
#X floatatom 202 202 5 0 0 0 - - -, f 5;
#X floatatom 72 303 5 0 0 0 - - -, f 5;
#X obj 229 317 >=;
#X obj 202 221 t f f;
#X obj 229 338 tgl 15 0 empty empty empty 17 7 0 10 -262144 -1 -1 0
1;
#X obj 202 152 /;
#X msg 466 383 destroy;
#X obj 78 108 route video tc;
#X obj 438 298 loadbang;
#X msg 527 320 destroy \, reset \, create \, 1 \,;
#X msg 438 413 destroy \, reset \, border 0 \, dimen 1280 720 \, offset
0 0 \, create \, 1 \,;
#X obj 523 180 key;
#X obj 523 202 sel 178;
#X obj 523 224 tgl 15 0 empty empty empty 17 7 0 10 -262144 -1 -1 1
1;
#X obj 523 244 sel 0 1;
#X obj 614 173 gemkeyboard;
#X obj 614 193 sel 49;
#X obj 252 142 print VIDEO;
#X msg 364 231 0;
#X obj 438 465 gemwin 25;
#X connect 0 0 21 0;
#X connect 1 0 2 0;
#X connect 1 1 13 0;
#X connect 2 0 11 0;
#X connect 3 0 1 0;
#X connect 4 0 5 0;
#X connect 5 0 1 0;
#X connect 6 0 7 0;
#X connect 7 0 8 0;
#X connect 8 0 10 0;
#X connect 9 0 8 1;
#X connect 12 0 32 0;
#X connect 12 1 4 0;
#X connect 13 0 15 0;
#X connect 13 0 16 1;
#X connect 13 3 19 1;
#X connect 14 0 17 0;
#X connect 16 0 9 0;
#X connect 16 0 18 0;
#X connect 17 0 1 1;
#X connect 17 1 16 0;
#X connect 19 0 14 0;
#X connect 20 0 33 0;
#X connect 21 0 12 0;
#X connect 21 0 31 0;
#X connect 21 1 19 0;
#X connect 22 0 24 0;
#X connect 23 0 33 0;
#X connect 24 0 33 0;
#X connect 25 0 26 0;
#X connect 26 0 27 0;
#X connect 27 0 28 0;
#X connect 28 0 24 0;
#X connect 28 1 23 0;
#X connect 29 0 30 0;
#X connect 30 0 27 0;
