#N canvas 1281 243 647 516 10;
#X obj 78 78 netreceive -u 8888;
#X obj 64 253 pix_film;
#X obj 64 340 pix_texture;
#X obj 22 171 gemhead;
#X obj 78 190 symbol;
#X obj 438 435 gemwin 60;
#X msg 78 214 open \$1 \, auto 0;
#X obj 338 297 gemhead 10000;
#X obj 338 319 alpha;
#X obj 338 411 color;
#X msg 365 366 0 0 0 \$1;
#X obj 338 433 rectangle 4 4;
#X obj 64 362 rectangle 4 4;
#X obj 78 161 t b a;
#X msg 359 167 0;
#X obj 86 276 unpack 0 0 0 0;
#X floatatom 202 202 5 0 0 0 - - -, f 5;
#X floatatom 72 303 5 0 0 0 - - -, f 5;
#X obj 229 317 >=;
#X obj 202 221 t f f;
#X obj 229 338 tgl 15 0 empty empty empty 17 7 0 10 -262144 -1 -1 0
1;
#X obj 205 152 /;
#X msg 466 383 destroy;
#X obj 78 108 route video tc;
#X obj 438 298 loadbang;
#X msg 438 413 reset \, border 0 \, dimen 1280 720 \, offset 0 0 \,
create \, 1 \,;
#X connect 0 0 23 0;
#X connect 1 0 2 0;
#X connect 1 1 15 0;
#X connect 2 0 12 0;
#X connect 3 0 1 0;
#X connect 4 0 6 0;
#X connect 6 0 1 0;
#X connect 7 0 8 0;
#X connect 8 0 9 0;
#X connect 9 0 11 0;
#X connect 10 0 9 1;
#X connect 13 0 14 0;
#X connect 13 1 4 0;
#X connect 14 0 10 0;
#X connect 15 0 17 0;
#X connect 15 0 18 1;
#X connect 15 3 21 1;
#X connect 16 0 19 0;
#X connect 18 0 10 0;
#X connect 18 0 20 0;
#X connect 19 0 1 1;
#X connect 19 1 18 0;
#X connect 21 0 16 0;
#X connect 22 0 5 0;
#X connect 23 0 13 0;
#X connect 23 1 21 0;
#X connect 24 0 25 0;
#X connect 25 0 5 0;
