#N canvas 196 333 861 600 10;
#X obj 78 78 netreceive -u 8888;
#X obj 64 323 pix_film;
#X obj 64 410 pix_texture;
#X obj 22 171 gemhead;
#X obj 69 231 symbol;
#X msg 69 255 open \$1 \, auto 0;
#X obj 338 297 gemhead 10000;
#X obj 338 319 alpha;
#X obj 338 411 color;
#X msg 365 366 0 0 0 \$1;
#X obj 78 161 t b a;
#X obj 86 346 unpack 0 0 0 0;
#X floatatom 202 202 5 0 0 0 - - -, f 5;
#X floatatom 72 373 5 0 0 0 - - -, f 5;
#X obj 229 317 >=;
#X obj 202 221 t f f;
#X obj 229 338 tgl 15 0 empty empty empty 17 7 0 10 -262144 -1 -1 0
1;
#X obj 202 152 /;
#X msg 466 383 destroy;
#X obj 78 108 route video tc;
#X obj 438 298 loadbang;
#X msg 527 320 destroy \, reset \, create \, 1 \,;
#X obj 523 180 key;
#X obj 523 202 sel 178;
#X obj 523 224 tgl 15 0 empty empty empty 17 7 0 10 -262144 -1 -1 0
1;
#X obj 523 244 sel 0 1;
#X obj 614 173 gemkeyboard;
#X obj 614 193 sel 49;
#X obj 252 142 print VIDEO;
#X msg 364 231 0;
#X obj 438 465 gemwin 25;
#X obj 78 132 route bang;
#X obj 202 116 t b f;
#X obj 152 406 /;
#X obj 103 205 bng 15 250 50 0 empty empty empty 17 7 0 10 -262144
-1 -1;
#X floatatom 205 383 5 0 0 0 - - -, f 5;
#X obj 152 427 * 4;
#X obj 64 512 rectangle 5.333 4;
#X obj 64 450 rotateXYZ 0 0 90;
#X obj 64 472 scaleXYZ 1.45 1.45 1;
#X msg 388 339 1;
#X obj 336 433 rectangle 10 10;
#X msg 438 413 destroy \, reset \, border 0 \, dimen 1024 768 \, offset
1280 0 \, create \, 1 \,;
#X connect 0 0 19 0;
#X connect 1 0 2 0;
#X connect 1 1 11 0;
#X connect 2 0 38 0;
#X connect 3 0 1 0;
#X connect 4 0 5 0;
#X connect 5 0 1 0;
#X connect 6 0 7 0;
#X connect 7 0 8 0;
#X connect 8 0 41 0;
#X connect 9 0 8 1;
#X connect 10 0 29 0;
#X connect 10 1 4 0;
#X connect 11 0 13 0;
#X connect 11 0 14 1;
#X connect 11 1 35 0;
#X connect 11 1 33 0;
#X connect 11 2 33 1;
#X connect 11 3 32 0;
#X connect 12 0 15 0;
#X connect 14 0 9 0;
#X connect 14 0 16 0;
#X connect 15 0 1 1;
#X connect 15 1 14 0;
#X connect 17 0 12 0;
#X connect 18 0 30 0;
#X connect 19 0 28 0;
#X connect 19 0 31 0;
#X connect 19 1 17 0;
#X connect 20 0 42 0;
#X connect 20 0 40 0;
#X connect 21 0 30 0;
#X connect 22 0 23 0;
#X connect 23 0 24 0;
#X connect 24 0 25 0;
#X connect 25 0 42 0;
#X connect 25 1 21 0;
#X connect 26 0 27 0;
#X connect 27 0 24 0;
#X connect 31 1 10 0;
#X connect 32 0 17 0;
#X connect 32 1 17 1;
#X connect 33 0 36 0;
#X connect 34 0 4 0;
#X connect 36 0 37 1;
#X connect 38 0 39 0;
#X connect 39 0 37 0;
#X connect 40 0 9 0;
#X connect 42 0 30 0;
